<svg xmlns="http://www.w3.org/2000/svg" width="420" height="120" viewBox="0 0 420 120">
  <defs>
    <path id="cloudBackShape" d="M0,120 C0,102 14,89 32,90 C50,70 82,68 104,88 C124,108 160,110 182,92 C206,72 236,70 258,90 C278,108 314,110 338,92 C360,74 392,76 408,96 C416,104 420,112 420,120 Z"/>
    <clipPath id="clipBack"><use href="#cloudBackShape"/></clipPath>
    <filter id="grainBack" x="-20%" y="-20%" width="140%" height="160%">
      <feTurbulence type="fractalNoise" baseFrequency="0.85" numOctaves="2" seed="7" result="noise"/>
      <feColorMatrix in="noise" type="saturate" values="0" result="mono"/>
      <feComponentTransfer in="mono"><feFuncA type="table" tableValues="0 0.07"/></feComponentTransfer>
    </filter>
  </defs>
  <use href="#cloudBackShape" fill="#ffffff"/>
  <g clip-path="url(#clipBack)">
    <path d="M0,120 C0,102 14,89 32,90 C50,70 82,68 104,88 C124,108 160,110 182,92 C206,72 236,70 258,90 C278,108 314,110 338,92 C360,74 392,76 408,96 C416,104 420,112 420,120"
      fill="none" stroke="#ffffff" stroke-opacity="0.72" stroke-width="2"/>
    <path d="M6,120 C6,106 18,96 34,97 C52,81 82,80 102,96 C124,111 156,112 178,98 C204,82 234,80 256,96 C278,112 312,112 334,98 C356,83 386,84 402,102 C408,107 412,113 414,120"
      fill="none" stroke="#aeb7c5" stroke-opacity="0.42" stroke-width="1.3"/>
    <g stroke="#6c8bbd" stroke-width="1" opacity="0.34">
      <line x1="10" y1="103" x2="410" y2="103"/>
      <line x1="10" y1="112" x2="410" y2="112"/>
      <line x1="10" y1="118" x2="410" y2="118"/>
    </g>
    <line x1="58" y1="89" x2="58" y2="120" stroke="#ef8e8e" stroke-width="1" opacity="0.28"/>
    <rect x="0" y="0" width="420" height="120" filter="url(#grainBack)"/>
  </g>
</svg>
