<svg xmlns="http://www.w3.org/2000/svg" width="420" height="140" viewBox="0 0 420 140">
  <defs>
    <path id="cloudFrontShape" d="M0,140 C0,118 16,102 38,104 C60,78 96,76 122,100 C146,126 186,128 212,106 C240,82 274,80 300,102 C324,126 362,128 388,108 C404,96 414,108 420,122 L420,140 Z"/>
    <clipPath id="clipFront"><use href="#cloudFrontShape"/></clipPath>
    <filter id="grainFront" x="-20%" y="-20%" width="140%" height="160%">
      <feTurbulence type="fractalNoise" baseFrequency="0.8" numOctaves="2" seed="11" result="noise"/>
      <feColorMatrix in="noise" type="saturate" values="0" result="mono"/>
      <feComponentTransfer in="mono"><feFuncA type="table" tableValues="0 0.08"/></feComponentTransfer>
    </filter>
  </defs>
  <use href="#cloudFrontShape" fill="#ffffff"/>
  <g clip-path="url(#clipFront)">
    <path d="M0,140 C0,118 16,102 38,104 C60,78 96,76 122,100 C146,126 186,128 212,106 C240,82 274,80 300,102 C324,126 362,128 388,108 C404,96 414,108 420,122"
      fill="none" stroke="#ffffff" stroke-opacity="0.78" stroke-width="2.2"/>
    <path d="M8,140 C8,122 22,110 40,111 C62,90 94,88 118,107 C144,127 180,128 208,112 C236,92 268,90 294,108 C320,127 356,129 382,114 C396,106 406,114 412,125"
      fill="none" stroke="#b2bcc9" stroke-opacity="0.45" stroke-width="1.5"/>
    <g stroke="#5f82b8" stroke-width="1" opacity="0.4">
      <line x1="10" y1="118" x2="410" y2="118"/>
      <line x1="10" y1="128" x2="410" y2="128"/>
      <line x1="10" y1="137" x2="410" y2="137"/>
    </g>
    <line x1="56" y1="104" x2="56" y2="140" stroke="#eb7f7f" stroke-width="1" opacity="0.28"/>
    <rect x="0" y="0" width="420" height="140" filter="url(#grainFront)"/>
  </g>
</svg>
